<svg xmlns="http://www.w3.org/2000/svg" xmlns:xlink="http://www.w3.org/1999/xlink" version="1.1" x="0px" y="0px" viewBox="0 0 100 125" enable-background="new 0 0 100 100" xml:space="preserve"><g><path fill="#000000" d="M60.808,41.149c0,0-2.045-5.307-1.521-10.751c0,0-1.125-18.607-2.175-23.088c0,0,0.863-1.163,0.472-2.193   h1.085c0,0-0.259-2.598-1.812-3.117h-4.484H47.89c-1.551,0.52-1.812,3.117-1.812,3.117h1.086c-0.392,1.03,0.472,2.193,0.472,2.193   c-1.05,4.48-2.175,23.088-2.175,23.088c0.525,5.444-1.521,10.751-1.521,10.751c-4.146,5.513-3.355,10.699-3.355,10.699   l0.018,43.261c0,0,0,0.067,0,0.103c0,1.65,1.333,2.987,2.98,2.998l0.002,0.002h8.789H61l0.013-0.015   c0.048,0.003,0.093,0.015,0.141,0.015c1.657,0,3-1.343,3-3c0-0.035,0.01-43.363,0.01-43.363S64.954,46.663,60.808,41.149z    M60.581,88.566c0,2.114-1.72,3.835-3.834,3.835H48c-2.114,0-3.834-1.721-3.834-3.835V58.085c0-2.114,1.72-3.835,3.834-3.835h8.747   c2.114,0,3.834,1.721,3.834,3.835V88.566z"/><path fill="#000000" d="M56.747,56.25H48c-1.012,0-1.834,0.823-1.834,1.835v30.481c0,1.012,0.823,1.835,1.834,1.835h8.747   c1.012,0,1.834-0.823,1.834-1.835V58.085C58.581,57.073,57.759,56.25,56.747,56.25z"/></g><text x="0" y="115" fill="#000000" font-size="5px" font-weight="bold" font-family="'Helvetica Neue', Helvetica, Arial-Unicode, Arial, Sans-serif">Created by Andrey Vasiliev</text><text x="0" y="120" fill="#000000" font-size="5px" font-weight="bold" font-family="'Helvetica Neue', Helvetica, Arial-Unicode, Arial, Sans-serif">from the Noun Project</text></svg>